<svg width="19" height="19" viewBox="0 0 19 19" fill="none" xmlns="http://www.w3.org/2000/svg">
<path d="M14.2452 0H4.75484C2.13296 0 0 2.2277 0 4.96604V14.034C0 16.7723 2.13296 19 4.75484 19H14.2452C16.867 19 19 16.7723 19 14.034V4.96604C19 2.2277 16.867 0 14.2452 0ZM1.67736 4.96604C1.67736 3.19397 3.05814 1.75186 4.75484 1.75186H14.2452C15.9419 1.75186 17.3226 3.19397 17.3226 4.96604V14.034C17.3226 15.806 15.9419 17.2481 14.2452 17.2481H4.75484C3.05814 17.2481 1.67736 15.806 1.67736 14.034V4.96604Z" fill="black"/>
<path d="M9.5 14C11.9807 14 14 11.9818 14 9.5C14 7.01822 11.9818 5 9.5 5C7.01823 5 5 7.01822 5 9.5C5 11.9818 7.01823 14 9.5 14ZM9.5 6.70772C11.0405 6.70772 12.2934 7.96064 12.2934 9.50109C12.2934 11.0415 11.0405 12.2945 9.5 12.2945C7.95955 12.2945 6.70663 11.0415 6.70663 9.50109C6.70663 7.96064 7.95955 6.70772 9.5 6.70772Z" fill="black"/>
</svg>
