<svg width="621" height="447" viewBox="0 0 621 447" fill="none" xmlns="http://www.w3.org/2000/svg">
<path d="M109.807 24.3559H129.009L149.29 73.8357H150.153L170.434 24.3559H189.636V98.0003H174.534V50.0667H173.922L154.864 97.6407H144.58L125.521 49.8869H124.91V98.0003H109.807V24.3559ZM201.452 98.0003V24.3559H230.507C236.093 24.3559 240.852 25.4227 244.783 27.5563C248.715 29.6659 251.711 32.6026 253.773 36.3663C255.858 40.106 256.901 44.4211 256.901 49.3116C256.901 54.202 255.846 58.5171 253.737 62.2569C251.627 65.9966 248.571 68.9093 244.567 70.995C240.588 73.0806 235.769 74.1234 230.112 74.1234H211.593V61.6456H227.595C230.591 61.6456 233.06 61.1302 235.002 60.0993C236.968 59.0445 238.43 57.5942 239.389 55.7483C240.372 53.8784 240.864 51.7328 240.864 49.3116C240.864 46.8664 240.372 44.7328 239.389 42.9109C238.43 41.065 236.968 39.6386 235.002 38.6317C233.036 37.6009 230.543 37.0855 227.523 37.0855H217.023V98.0003H201.452ZM266.002 98.0003V24.3559H315.626V37.1934H281.573V54.7414H313.073V67.5788H281.573V85.1629H315.77V98.0003H266.002ZM326.992 98.0003V24.3559H356.047C361.609 24.3559 366.355 25.3508 370.287 27.3405C374.243 29.3063 377.251 32.0991 379.313 35.719C381.398 39.3149 382.441 43.5461 382.441 48.4126C382.441 53.3031 381.386 57.5103 379.277 61.0343C377.167 64.5343 374.111 67.2193 370.107 69.0891C366.128 70.959 361.309 71.8939 355.652 71.8939H336.198V59.3802H353.134C356.107 59.3802 358.576 58.9726 360.542 58.1575C362.508 57.3425 363.97 56.1199 364.929 54.4897C365.912 52.8596 366.403 50.8339 366.403 48.4126C366.403 45.9674 365.912 43.9057 364.929 42.2276C363.97 40.5495 362.496 39.279 360.506 38.416C358.54 37.529 356.059 37.0855 353.063 37.0855H342.562V98.0003H326.992ZM366.763 64.4864L385.066 98.0003H367.878L349.97 64.4864H366.763ZM408.002 24.3559V98.0003H392.432V24.3559H408.002ZM432.494 98.0003H415.809L441.232 24.3559H461.297L486.684 98.0003H469.999L451.552 41.1848H450.977L432.494 98.0003ZM431.451 69.0532H470.862V81.2074H431.451V69.0532ZM494.536 98.0003V24.3559H510.106V85.1629H541.678V98.0003H494.536ZM590.927 45.5359C590.64 42.6352 589.405 40.3817 587.224 38.7756C585.042 37.1694 582.081 36.3663 578.342 36.3663C575.801 36.3663 573.655 36.7259 571.905 37.4451C570.155 38.1403 568.812 39.1112 567.878 40.3578C566.967 41.6043 566.511 43.0187 566.511 44.6009C566.463 45.9194 566.739 47.0701 567.338 48.053C567.961 49.0359 568.812 49.8869 569.891 50.6061C570.97 51.3013 572.217 51.9126 573.631 52.44C575.045 52.9435 576.556 53.375 578.162 53.7346L584.778 55.3168C587.991 56.036 590.939 56.9949 593.624 58.1935C596.309 59.3921 598.635 60.8665 600.6 62.6165C602.566 64.3665 604.088 66.4282 605.167 68.8015C606.27 71.1748 606.833 73.8957 606.857 76.9642C606.833 81.4711 605.683 85.3786 603.405 88.6869C601.152 91.9711 597.891 94.5242 593.624 96.3462C589.381 98.1441 584.263 99.0431 578.27 99.0431C572.325 99.0431 567.146 98.1322 562.735 96.3102C558.348 94.4883 554.92 91.7914 552.451 88.2194C550.006 84.6235 548.723 80.1765 548.603 74.8786H563.67C563.838 77.3478 564.545 79.4094 565.792 81.0635C567.062 82.6937 568.753 83.9283 570.862 84.7673C572.996 85.5824 575.405 85.9899 578.09 85.9899C580.727 85.9899 583.016 85.6064 584.958 84.8392C586.924 84.0721 588.446 83.0053 589.525 81.6389C590.604 80.2724 591.143 78.7022 591.143 76.9282C591.143 75.2741 590.652 73.8837 589.669 72.757C588.71 71.6302 587.296 70.6713 585.426 69.8802C583.58 69.0891 581.314 68.3699 578.629 67.7227L570.61 65.709C564.402 64.1987 559.499 61.8374 555.903 58.625C552.307 55.4127 550.521 51.0856 550.545 45.6438C550.521 41.1848 551.708 37.2892 554.105 33.957C556.526 30.6248 559.847 28.0238 564.066 26.1539C568.285 24.284 573.08 23.3491 578.45 23.3491C583.915 23.3491 588.686 24.284 592.761 26.1539C596.861 28.0238 600.049 30.6248 602.326 33.957C604.604 37.2892 605.779 41.1489 605.85 45.5359H590.927Z" fill="#0C358C"/>
<path fill-rule="evenodd" clip-rule="evenodd" d="M238.66 302.759L289.923 325.507L366.999 294.631L404.866 292.233L289.923 338.278L209.087 309.716L236.314 302.908L238.66 302.759Z" fill="#020E7E"/>
<path fill-rule="evenodd" clip-rule="evenodd" d="M90.1189 343.728V446.894H0V13.6465H90.1189V217.078C72.833 202.91 56.6512 189.838 53.8365 189.838C47.7909 189.838 35.0932 195.611 35.0932 195.611L80.9645 288.954L31.2319 281.151L19.1406 285.657L81.7468 307.521L84.1328 308.354C85.6653 308.604 87.6859 308.868 90.1189 309.135C95.4202 309.714 102.68 310.303 111.116 310.772C113.538 310.907 116.057 311.032 118.655 311.144C145.443 312.302 180.578 312.103 203.777 307.257C205.755 306.844 208.341 306.276 211.467 305.569L308.647 446.894H203.085L114.541 315.842L90.1189 343.728ZM468.224 240.646C493.394 233.701 512.227 228.098 519.381 225.118C550.21 212.292 574.398 202.033 569.559 188.557C569.559 188.557 567.74 178.962 544.845 181.491L528.174 187.204L528.329 180.033L537.685 176.933C518.749 169.352 479.54 177.994 451.011 184.283C448.3 184.881 445.686 185.457 443.195 185.996C437.63 187.199 426.562 190.024 412.031 193.884H350.533V121.958H612.639V180.557L463.287 372.641V374.968H618.139V446.894H345.033V393.161L468.224 240.646ZM187.837 255.89C186.169 255.817 182.119 255.634 176.951 255.373C170.777 255.06 163.007 254.634 155.797 254.146C146.656 253.526 138.414 252.804 135.462 252.084C132.461 251.345 120.748 242.109 107.072 230.967L199.065 121.958H302.512L187.837 255.89Z" fill="url(#paint0_linear_99_653)"/>
<path d="M192.069 316.522C221.881 311.268 339.175 285.533 501.785 238.243" stroke="#020E7E" stroke-width="13.6139"/>
<defs>
<linearGradient id="paint0_linear_99_653" x1="309.069" y1="13.6465" x2="309.069" y2="446.894" gradientUnits="userSpaceOnUse">
<stop stop-color="#134C95"/>
<stop offset="0.55" stop-color="#020E7E"/>
</linearGradient>
</defs>
</svg>
