<svg width="23" height="19" viewBox="0 0 23 19" fill="none" xmlns="http://www.w3.org/2000/svg">
<path d="M0.604261 8.66104C0.65708 8.63468 0.709924 8.60962 0.761422 8.5859C1.65671 8.17201 2.56387 7.78449 3.46972 7.39696C3.51858 7.39696 3.60043 7.34028 3.64664 7.32182C3.71663 7.29151 3.78663 7.26252 3.85661 7.2322C3.9913 7.1742 4.126 7.11751 4.25936 7.05952C4.52874 6.94484 4.79678 6.83017 5.06616 6.71549L6.67845 6.02611C7.75332 5.56741 8.82953 5.10737 9.9044 4.64867C10.9793 4.18996 12.0554 3.72994 13.1303 3.27124C14.2052 2.81253 15.2814 2.35251 16.3562 1.89381C17.4311 1.4351 18.5073 0.975067 19.5822 0.516361C19.8212 0.413548 20.08 0.260642 20.3362 0.215826C20.5514 0.1776 20.7613 0.103797 20.9779 0.0629352C21.3886 -0.0148339 21.8415 -0.046474 22.235 0.123564C22.371 0.182879 22.4965 0.26592 22.6008 0.370052C23.0999 0.863029 23.0299 1.67236 22.9243 2.36569C22.1888 7.19792 21.4533 12.0315 20.7164 16.8637C20.6161 17.5267 20.4788 18.2543 19.9545 18.6735C19.5108 19.0281 18.8797 19.0676 18.3317 18.9173C17.7837 18.7657 17.3004 18.4481 16.8263 18.1357C14.8601 16.836 12.8926 15.5363 10.9264 14.2367C10.459 13.9282 9.93874 13.5249 9.94402 12.9647C9.94666 12.6273 10.1487 12.3267 10.3547 12.0592C12.0634 9.83417 14.5287 8.30514 16.3628 6.18296C16.6217 5.88375 16.825 5.34333 16.4698 5.17066C16.2585 5.06784 16.0155 5.20755 15.8228 5.34068C13.3984 7.02129 10.9753 8.70321 8.55091 10.3838C7.75995 10.9322 6.93069 11.4963 5.9773 11.6308C5.12428 11.752 4.26597 11.5148 3.44067 11.2722C2.74874 11.0692 2.05811 10.861 1.37014 10.6461C1.00437 10.5328 0.626713 10.4102 0.344131 10.1531C0.0615492 9.89611 -0.100847 9.46377 0.069494 9.12106C0.176453 8.90621 0.383771 8.77044 0.60165 8.65972L0.604261 8.66104Z" fill="black"/>
</svg>
