<svg width="17" height="19" viewBox="0 0 17 19" fill="none" xmlns="http://www.w3.org/2000/svg">
<path d="M17 4.60054V7.87536C16.4089 7.81946 15.641 7.68944 14.7914 7.38809C13.6821 6.99438 12.8564 6.45607 12.3155 6.03928V12.6582L12.3017 12.6375C12.3105 12.7687 12.3155 12.9024 12.3155 13.0373C12.3155 16.3243 9.55348 19 6.15775 19C2.76201 19 0 16.3243 0 13.0373C0 9.75033 2.76201 7.07337 6.15775 7.07337C6.49029 7.07337 6.81657 7.09888 7.13531 7.14871V10.3761C6.82912 10.2704 6.50033 10.2133 6.15775 10.2133C4.55023 10.2133 3.24138 11.4795 3.24138 13.0373C3.24138 14.5951 4.55023 15.8613 6.15775 15.8613C7.76526 15.8613 9.07411 14.5939 9.07411 13.0373C9.07411 12.979 9.07286 12.9206 9.06909 12.8623V0H12.4485C12.4611 0.277053 12.4724 0.556534 12.4849 0.833587C12.5075 1.37919 12.7083 1.90292 13.0584 2.33187C13.4687 2.83616 14.0748 3.42185 14.9257 3.88968C15.7225 4.32592 16.4704 4.51426 17 4.60297V4.60054Z" fill="black"/>
</svg>
