<svg width="19" height="13" viewBox="0 0 19 13" fill="none" xmlns="http://www.w3.org/2000/svg">
<path fill-rule="evenodd" clip-rule="evenodd" d="M1.51557 0.50028C1.84367 0.342568 2.23029 0.396524 2.50643 0.638563C3.69719 1.68227 5.49765 3.251 7.02914 4.56524C7.79544 5.22284 8.49105 5.81385 9.00828 6.24285C9.15401 6.36372 9.28378 6.47024 9.39583 6.56089C9.50074 6.48195 9.62165 6.38892 9.7576 6.2825C10.2892 5.86637 11.0078 5.27926 11.803 4.61801C13.3913 3.29725 15.2611 1.70092 16.4983 0.633685C16.7753 0.394787 17.1606 0.343416 17.4869 0.501883C17.8132 0.660351 18.0216 1.00006 18.0216 1.37347V11.6265C18.0216 12.1581 17.6057 12.5891 17.0927 12.5891C16.5796 12.5891 16.1637 12.1581 16.1637 11.6265V3.4202C15.1455 4.28957 13.9977 5.26142 12.9658 6.11944C12.1668 6.78385 11.4313 7.38508 10.8775 7.81857C10.6024 8.03389 10.3613 8.21642 10.1754 8.34631C10.0849 8.40947 9.98951 8.47291 9.90104 8.52295C9.859 8.54673 9.79432 8.58141 9.71859 8.61076C9.68078 8.62541 9.61938 8.64698 9.54297 8.66183C9.47925 8.67421 9.3276 8.69817 9.14278 8.65276C8.99414 8.61625 8.87889 8.54573 8.85834 8.53315C8.85733 8.53253 8.85654 8.53206 8.856 8.53173C8.81284 8.50583 8.77207 8.47816 8.73903 8.45494C8.67128 8.40735 8.59192 8.34728 8.50772 8.28161C8.33709 8.14853 8.11112 7.96465 7.84726 7.74579C7.31773 7.3066 6.61263 6.70744 5.84409 6.04791C4.87407 5.21548 3.79764 4.2823 2.83544 3.44412V11.6265C2.83544 12.1581 2.41953 12.5891 1.90649 12.5891C1.39344 12.5891 0.977539 12.1581 0.977539 11.6265V1.37347C0.977539 0.998691 1.18747 0.657991 1.51557 0.50028ZM9.01152 6.83281C9.0099 6.83368 9.00908 6.83414 9.00914 6.83413C9.00918 6.83412 9.00974 6.83381 9.01087 6.83318" fill="white"/>
</svg>
